<?xml version="1.0" encoding="UTF-8"?>
<svg id="Layer_1" xmlns="http://www.w3.org/2000/svg" version="1.1" viewBox="0 0 70.87 70.87">
  <!-- Generator: Adobe Illustrator 29.4.0, SVG Export Plug-In . SVG Version: 2.1.0 Build 152)  -->
  <defs>
    <style>
      .st0 {
        fill: #fff;
      }

      .st0, .st1, .st2 {
        stroke-linecap: round;
        stroke-linejoin: round;
      }

      .st0, .st2 {
        stroke: #ed1c24;
        stroke-width: .12px;
      }

      .st1 {
        fill: #231f20;
        stroke: #231f20;
        stroke-width: .03px;
      }

      .st3, .st2 {
        fill: #ed1c24;
      }
    </style>
  </defs>
  <g>
    <path class="st2" d="M16,46.17c1.52,0,2.41.7,2.41,1.96s-.89,1.99-2.42,1.99h-1.64v3.04c0,.59.23.77.94.77h.56v.1h-3.94v-.1h.36c.54,0,.71-.17.71-.7v-6.25c0-.52-.19-.7-.71-.7h-.36v-.1h4.09ZM15.53,50.02c.98,0,1.52-.7,1.52-1.86,0-1.24-.53-1.89-1.49-1.89h-1.01c-.15,0-.2.05-.2.2v3.54h1.19Z"/>
    <path class="st2" d="M21.23,49.21h.02c.21-.62.9-1.14,1.79-1.14,1.13,0,1.73.61,1.73,1.65v2.74c0,.53.16.7.69.7h.24v.1h-3.11v-.1h.2c.51,0,.65-.17.65-.7v-2.98c0-.69-.3-1.07-.92-1.07-.67,0-1.27.62-1.27,1.23v2.82c0,.53.15.7.66.7h.2v.1h-3.21v-.1h.31c.54,0,.71-.17.71-.7v-6.1c0-.47-.16-.61-.64-.61h-.39v-.1l2.27-.05.05.05v3.55Z"/>
    <path class="st2" d="M31.36,52.55c0,.47.15.62.64.62h.71v.1l-2.6.06-.05-.05v-1.02h-.03c-.22.6-.89,1.14-1.78,1.14-1.13,0-1.73-.61-1.73-1.65v-2.74c0-.53-.16-.7-.69-.7h-.24v-.1h2.21l.05.05v3.73c0,.69.3,1.07.91,1.07.68,0,1.27-.63,1.27-1.23v-2.82c0-.53-.14-.7-.65-.7h-.2v-.1h2.13l.05.05v4.3Z"/>
    <path class="st2" d="M35.85,46.27c-.54,0-.7.17-.7.7v6c0,.15.05.2.2.2h1.69c.89,0,1.43-.49,1.94-2.54h.1s-.39,2.59-.39,2.59l-.05.05h-5.94v-.1h.37c.54,0,.7-.17.7-.7v-5.5c0-.53-.16-.7-.7-.7h-.33v-.1h3.42v.1h-.3Z"/>
    <path class="st2" d="M45.4,50.55c.01,1.59-1.11,2.84-2.84,2.84s-2.7-.98-2.7-2.58c0-1.48,1.01-2.74,2.84-2.74,1.39,0,2.69.76,2.7,2.48M41.25,50.82c0,1.62.53,2.5,1.37,2.48.91-.01,1.4-.95,1.38-2.76-.02-1.68-.59-2.35-1.37-2.35s-1.38.97-1.38,2.64"/>
    <path class="st2" d="M48.11,49.21c.22-.6.9-1.14,1.78-1.14,1.13,0,1.73.61,1.73,1.65v2.74c0,.53.17.7.69.7h.25v.1h-3.12v-.1h.21c.5,0,.65-.17.65-.7v-2.98c0-.69-.3-1.07-.92-1.07-.67,0-1.27.63-1.27,1.23v2.82c0,.53.15.7.65.7h.2v.1h-3.2v-.1h.31c.54,0,.7-.17.7-.7v-3.55c0-.47-.15-.62-.63-.62h-.39v-.1l2.31-.05.05.05-.05,1.01h.03Z"/>
    <path class="st2" d="M54.72,52.31c-1.28-.21-2.01-.97-2.01-2.08,0-1.36,1.06-2.32,2.84-2.32.54,0,1.05.13,1.46.35.91-.04,1.81-.71,1.81-1.58-.05.39-.34.64-.72.64-.47,0-.78-.32-.78-.77,0-.48.33-.81.83-.81s.8.4.8.92c0,.91-.87,1.63-1.76,1.69.54.35.88.91.88,1.6,0,1.54-1.1,2.42-2.71,2.42-1.2,0-1.79.3-1.79.87,0,.47.47.68,1.33.64.61,0,1.43-.1,2.05-.1,1.21,0,1.91.64,1.91,1.76,0,1.29-1.22,2.07-3.35,2.07-1.59,0-2.49-.48-2.49-1.33,0-.8.63-1.26,1.74-1.26v-.05h-.38c-1.07-.01-1.76-.44-1.76-1.2,0-.86.73-1.43,2.1-1.45v-.03ZM54.76,55.16c-1.05,0-1.63.42-1.63,1.14,0,.76.86,1.2,2.36,1.2,1.78,0,2.7-.54,2.7-1.4,0-.57-.59-.93-1.57-.93h-1.87ZM55.37,52.26c.74,0,1.26-.73,1.26-2.26,0-1.36-.47-1.97-1.24-1.97-.69,0-1.22.71-1.22,2.2s.49,2.03,1.2,2.03"/>
    <rect class="st0" x="12.65" y="53.91" width="39.59" height=".12"/>
    <g>
      <path class="st1" d="M12.31,57.55v-2.14h.75c.54,0,.73.27.73.58,0,.13-.02.24-.09.35-.1.16-.28.26-.64.26h-.47v.95h-.27ZM12.59,56.45h.51c.31,0,.42-.14.42-.46,0-.3-.14-.43-.42-.43h-.51v.89Z"/>
      <path class="st1" d="M14.1,57.55v-2.14h.82c.21,0,.36.04.46.11.15.11.2.26.2.44,0,.27-.14.45-.43.52l.47,1.07h-.29l-.44-1.05h-.51v1.05h-.27ZM14.37,56.35h.54c.16,0,.27-.04.32-.12.06-.08.07-.16.07-.27,0-.09,0-.16-.04-.23-.05-.1-.16-.17-.34-.17h-.54v.79Z"/>
      <path class="st1" d="M16,57.55v-2.14h.27v2.14h-.27Z"/>
      <path class="st1" d="M16.79,57.55v-2.14h.21l.97,1.7v-1.7h.23v2.14h-.2l-.97-1.66v1.66h-.23Z"/>
      <path class="st1" d="M18.99,57.55v-1.99h-.6v-.15h1.47v.15h-.6v1.99h-.27Z"/>
      <path class="st1" d="M20.06,57.55v-2.14h.27v2.14h-.27Z"/>
      <path class="st1" d="M20.85,57.55v-2.14h.21l.97,1.7v-1.7h.23v2.14h-.2l-.97-1.66v1.66h-.23Z"/>
      <path class="st1" d="M22.73,56.05c0-.44.27-.67.8-.67.26,0,.43.06.53.16.07.07.11.14.14.25.03.1.04.19.04.31h0s-.27.01-.27.01h0v-.03c0-.06,0-.1,0-.14,0-.03,0-.07-.01-.12,0-.05-.02-.09-.04-.12-.02-.03-.04-.05-.07-.08-.06-.06-.17-.08-.31-.08-.2,0-.35.05-.42.13-.08.08-.11.18-.11.3v1.07c0,.11.03.19.09.28.07.08.21.13.42.13.19,0,.32-.05.39-.13s.09-.16.09-.27v-.36h-.38v-.14h.65v1.02h-.12l-.08-.21c-.04.07-.11.13-.21.18-.1.04-.22.07-.34.07-.33,0-.53-.09-.64-.2-.05-.05-.09-.13-.11-.18,0-.03-.02-.06-.02-.09,0-.03,0-.06,0-.08,0-.02,0-.05,0-.08v-.91Z"/>
      <path class="st1" d="M25.54,57.55h-.27l.6-2.14h.35l.6,2.14h-.28l-.15-.56h-.7l-.16.56ZM25.73,56.87h.64l-.32-1.26-.32,1.26Z"/>
      <path class="st1" d="M27.17,57.55v-2.14h.21l.97,1.7v-1.7h.23v2.14h-.2l-.97-1.66v1.66h-.23Z"/>
      <path class="st1" d="M29.1,57.55v-2.14h.69c.6,0,.78.28.78.64v.87c0,.42-.26.63-.78.63h-.69ZM29.38,57.4h.41c.34,0,.51-.15.51-.44v-.96c0-.3-.17-.45-.51-.45h-.41v1.84Z"/>
      <path class="st1" d="M31.76,57.55v-2.14h.69c.6,0,.78.28.78.64v.87c0,.42-.26.63-.78.63h-.69ZM32.03,57.4h.41c.34,0,.51-.15.51-.44v-.96c0-.3-.17-.45-.51-.45h-.41v1.84Z"/>
      <path class="st1" d="M33.69,57.55v-2.14h1.07v.15h-.79v.81h.57v.14h-.57v.88h.79v.15h-1.07Z"/>
      <path class="st1" d="M35.21,56.99c.02.12.07.22.15.31.08.09.22.14.4.14.28,0,.43-.11.43-.31,0-.08-.04-.16-.11-.24-.07-.08-.17-.17-.31-.27l-.48-.35c-.21-.15-.32-.28-.32-.43,0-.14.07-.25.2-.33.13-.08.3-.13.51-.13.4,0,.65.16.73.47v.02s-.22.05-.22.05h0c-.02-.12-.08-.21-.17-.28-.08-.07-.2-.1-.33-.1-.27,0-.44.1-.44.28,0,.12.09.22.25.34l.45.34.09.07s.08.06.09.07c.02.01.04.03.08.07.04.03.07.06.08.08l.06.07s.05.06.06.08c.02.04.04.11.04.17,0,.15-.07.27-.2.35-.13.08-.31.12-.52.12-.45,0-.69-.25-.75-.55l.24-.05Z"/>
      <path class="st1" d="M36.8,57.55v-2.14h.27v2.14h-.27Z"/>
      <path class="st1" d="M37.53,56.05c0-.44.27-.67.8-.67.26,0,.43.06.53.16.07.07.11.14.14.25.03.1.04.19.04.31h0s-.27.01-.27.01h0v-.03c0-.06,0-.1,0-.14s0-.07-.01-.12-.02-.09-.04-.12c-.02-.03-.04-.05-.07-.08-.06-.06-.17-.08-.31-.08-.2,0-.34.05-.42.13-.08.08-.11.18-.11.3v1.07c0,.11.03.19.09.28.07.08.21.13.42.13.19,0,.32-.05.39-.13s.09-.16.09-.27v-.36h-.38v-.14h.65v1.02h-.12l-.08-.21c-.04.07-.11.13-.21.18-.1.04-.22.07-.34.07-.33,0-.53-.09-.64-.2-.05-.05-.09-.13-.11-.18,0-.03-.02-.06-.02-.09,0-.03,0-.06,0-.08,0-.02,0-.05,0-.08v-.91Z"/>
      <path class="st1" d="M39.52,57.55v-2.14h.21l.97,1.7v-1.7h.23v2.14h-.2l-.97-1.66v1.66h-.23Z"/>
      <path class="st1" d="M42.12,56.03c0-.15.02-.27.09-.38.11-.17.31-.27.67-.27.48,0,.72.22.72.65v.09h-.26v-.13c0-.14-.03-.24-.1-.33-.07-.09-.19-.13-.36-.13s-.27.03-.35.09c-.04.03-.07.06-.09.1-.04.08-.06.16-.06.27v.98c0,.14.03.24.09.33.07.09.2.14.4.14.17,0,.3-.05.36-.13.07-.09.1-.19.1-.33v-.15h.26v.1c0,.15-.02.27-.09.39-.1.16-.29.27-.63.27-.24,0-.42-.05-.53-.13-.06-.04-.1-.09-.14-.14-.07-.11-.09-.23-.09-.39v-.9Z"/>
      <path class="st1" d="M43.96,56.03c0-.15.03-.27.1-.38.11-.17.32-.27.68-.27.23,0,.42.05.53.13.18.12.25.31.25.53v.9c0,.44-.26.66-.78.66s-.78-.22-.78-.66v-.9ZM45.25,55.99c0-.31-.17-.46-.51-.46s-.51.15-.51.46v.98c0,.31.17.46.51.46s.51-.15.51-.46v-.98Z"/>
      <path class="st1" d="M45.93,57.55v-.22h.33v.22h-.33Z"/>
      <path class="st1" d="M46.67,57.81c.08-.02.13-.07.16-.12.02-.05.03-.09.03-.13h-.23v-.22h.33v.03s0,.08,0,.1c0,.02,0,.05,0,.09s0,.07,0,.09c0,.02-.01.04-.02.07-.01.06-.03.08-.07.11-.03.03-.08.05-.14.05l-.05-.07Z"/>
      <path class="st1" d="M48.11,57.55v-2.14h.27v1.99h.85v.15h-1.13Z"/>
      <path class="st1" d="M49.65,57.55v-1.99h-.6v-.15h1.47v.15h-.6v1.99h-.27Z"/>
      <path class="st1" d="M50.72,57.55v-2.14h.69c.6,0,.78.28.78.64v.87c0,.42-.26.63-.78.63h-.69ZM50.99,57.4h.41c.34,0,.51-.15.51-.44v-.96c0-.3-.17-.45-.51-.45h-.41v1.84Z"/>
    </g>
  </g>
  <g>
    <path class="st3" d="M34.61,12.99c-8.38,0-15.17,6.79-15.17,15.17s6.79,15.17,15.17,15.17,15.17-6.79,15.17-15.17-6.79-15.17-15.17-15.17ZM33.94,41.4c-7.58,0-13.73-6.15-13.73-13.73s6.15-13.73,13.73-13.73,13.73,6.15,13.73,13.73-6.15,13.73-13.73,13.73Z"/>
    <path class="st3" d="M30.01,28.19c.14-.18.43-.02.36.19-.49,1.43-.84,3.44-.45,3.83-.58-.58,1.98-4.46,1.98-5.88,0-1.01-.32-1.66-.67-2.11-.16-.21-1.98.52-2.07.61,0-1.68-1.75-2.24-2.4-2.24-.89,0-2.1.48-2.45.68h0c.61-.77-.18-2.31-.58-2.98-.09-.14.03-.32.19-.31,1.19.09,4.45.38,4.45.38v-.64s2.57.25,4.44.25c.92,0,2.72-.4,4.32-.8.35-.09.52.41.19.56l-1.19.55c-.31.14-.18.6.16.56h0c.35-.04.47.46.13.57l-1.32.46c-.14.05-.19.22-.09.33.52.61,1.88,2.38,1.88,4.38,0,2.99-.9,4.92-.9,4.92,1.54-1.54,2.32-6.35.32-8.52-.09-.09,0-.11.14-.1,9.8.14,7.87,9.31,14.9,17.45.21.24-.05.59-.34.46-3.38-1.51-11.33-4.32-14.69-4.32-1.69,0-2.21.71-.39,2.67.12.13.03.35-.15.35-8.07-.19-8.78-5.71-8.35-7.98s2.57-3.33,2.57-3.33Z"/>
  </g>
</svg>