<?xml version="1.0" encoding="UTF-8"?>
<svg id="Layer_1" xmlns="http://www.w3.org/2000/svg" version="1.1" viewBox="0 0 181.6 70.87">
  <!-- Generator: Adobe Illustrator 29.4.0, SVG Export Plug-In . SVG Version: 2.1.0 Build 152)  -->
  <defs>
    <style>
      .st0 {
        fill: #fff;
      }

      .st0, .st1, .st2 {
        stroke-linecap: round;
        stroke-linejoin: round;
      }

      .st0, .st2 {
        stroke: #ed1c24;
        stroke-width: .27px;
      }

      .st3, .st2 {
        fill: #ed1c24;
      }

      .st1 {
        fill: #231f20;
        stroke: #231f20;
        stroke-width: .07px;
      }

      .st4 {
        display: none;
      }
    </style>
  </defs>
  <g class="st4">
    <path class="st3" d="M48.87,14.79c1.27.05,2.8.23,4.49.68,1.68.47,3.52,1.23,5.3,2.39,1.78,1.16,3.5,2.74,4.91,4.69,1.41,1.95,2.5,4.3,3.06,6.85.06.32.13.64.18.97.04.33.1.65.13.98.03.33.07.66.07.99l.02.49c0,.16,0,.35,0,.52v.53s-.04.48-.04.48c-.01.17-.02.34-.03.5l-.06.5c-.07.67-.19,1.34-.33,2.01-.29,1.3-.74,2.56-1.33,3.77.35.77.71,1.55,1.11,2.33.25-.44.49-.88.7-1.34.66-1.39,1.17-2.84,1.49-4.33.15-.74.28-1.49.35-2.24l.05-.56c.01-.19.02-.37.02-.56l.02-.58v-.53c-.01-.18,0-.34-.02-.54l-.04-.57c-.02-.38-.07-.74-.11-1.11-.04-.36-.11-.72-.17-1.08-.06-.36-.15-.71-.23-1.06-.68-2.81-1.99-5.33-3.61-7.38-.81-1.03-1.7-1.95-2.64-2.74-.94-.79-1.92-1.47-2.9-2.03-.99-.56-1.97-1.03-2.94-1.37-.97-.34-1.91-.6-2.81-.78-1.79-.35-3.39-.38-4.68-.31-1.3.07-2.29.27-2.97.42-.34.07-.66.2.02.12.68-.08,1.68-.16,2.95-.12"/>
  </g>
  <g class="st4">
    <path class="st3" d="M59.16,48.24c-.85.58-1.74,1.09-2.67,1.52-1.24.56-2.53.99-3.84,1.27-.65.14-1.31.24-1.97.31-.33.03-.64.05-.97.07-.34,0-.67.01-1.01.02-2.61-.04-5.13-.61-7.33-1.6-2.2-.99-4.09-2.36-5.59-3.86-.75-.75-1.4-1.55-1.97-2.34-.57-.79-1.06-1.58-1.45-2.37-.79-1.56-1.28-3.03-1.58-4.26-.29-1.24-.59-3.26-.59-2.91,0,.69,0,1.71.19,2.99.19,1.28.54,2.84,1.26,4.52.71,1.67,1.75,3.5,3.27,5.19.75.85,1.61,1.67,2.58,2.43.97.76,2.05,1.44,3.22,2.03,2.34,1.17,5.08,1.94,7.96,2.03,2.87.1,5.89-.42,8.67-1.67,1.5-.68,2.94-1.55,4.25-2.59-.8-.27-1.61-.53-2.42-.77"/>
  </g>
  <g>
    <g>
      <path class="st2" d="M67.27,26.44c3.35,0,5.32,1.54,5.32,4.31s-1.97,4.38-5.34,4.38h-3.62v6.69c0,1.29.51,1.7,2.08,1.7h1.23v.22h-8.67v-.22h.78c1.18,0,1.56-.38,1.56-1.54v-13.77c0-1.14-.42-1.54-1.56-1.54h-.78v-.22h9ZM66.24,34.9c2.17,0,3.35-1.54,3.35-4.09,0-2.72-1.16-4.15-3.28-4.15h-2.23c-.34,0-.45.11-.45.45v7.8h2.61Z"/>
      <path class="st2" d="M78.79,33.14h.04c.47-1.36,1.99-2.5,3.93-2.5,2.48,0,3.82,1.34,3.82,3.64v6.03c0,1.16.36,1.54,1.52,1.54h.54v.22h-6.86v-.22h.45c1.12,0,1.43-.38,1.43-1.54v-6.57c0-1.52-.67-2.35-2.03-2.35-1.47,0-2.79,1.36-2.79,2.7v6.21c0,1.16.33,1.54,1.45,1.54h.45v.22h-7.06v-.22h.69c1.18,0,1.56-.38,1.56-1.54v-13.42c0-1.03-.36-1.34-1.41-1.34h-.85v-.22l5-.11.11.11v7.82Z"/>
      <path class="st2" d="M101.08,40.49c0,1.03.34,1.36,1.41,1.36h1.56v.22l-5.72.13-.11-.11v-2.26h-.07c-.49,1.32-1.97,2.5-3.91,2.5-2.48,0-3.82-1.34-3.82-3.64v-6.03c0-1.16-.36-1.54-1.52-1.54h-.54v-.22h4.87l.11.11v8.22c0,1.52.67,2.35,2.01,2.35,1.5,0,2.79-1.38,2.79-2.7v-6.21c0-1.16-.31-1.54-1.43-1.54h-.45v-.22h4.69l.11.11v9.47Z"/>
      <path class="st2" d="M110.98,26.66c-1.18,0-1.54.38-1.54,1.54v13.2c0,.34.11.45.45.45h3.73c1.97,0,3.15-1.07,4.27-5.58l.22.02-.85,5.67-.11.11h-13.09v-.22h.8c1.18,0,1.54-.38,1.54-1.54v-12.11c0-1.16-.36-1.54-1.54-1.54h-.74v-.22h7.53v.22h-.67Z"/>
      <path class="st2" d="M131.99,36.09c.02,3.51-2.43,6.25-6.25,6.25s-5.94-2.17-5.94-5.67c0-3.26,2.23-6.03,6.25-6.03,3.06,0,5.92,1.68,5.94,5.45M122.86,36.67c0,3.57,1.16,5.49,3.02,5.45,2.01-.02,3.08-2.1,3.04-6.08-.04-3.71-1.3-5.18-3.02-5.18s-3.04,2.14-3.04,5.81"/>
      <path class="st2" d="M137.96,33.14c.49-1.32,1.99-2.5,3.91-2.5,2.48,0,3.82,1.34,3.82,3.64v6.03c0,1.16.38,1.54,1.52,1.54h.56v.22h-6.88v-.22h.47c1.09,0,1.43-.38,1.43-1.54v-6.57c0-1.52-.67-2.35-2.03-2.35-1.47,0-2.79,1.38-2.79,2.7v6.21c0,1.16.34,1.54,1.43,1.54h.45v.22h-7.04v-.22h.69c1.18,0,1.54-.38,1.54-1.54v-7.82c0-1.03-.33-1.36-1.38-1.36h-.85v-.22l5.09-.11.11.11-.11,2.23h.07Z"/>
      <path class="st2" d="M152.53,39.95c-2.81-.47-4.42-2.14-4.42-4.59,0-3,2.33-5.12,6.25-5.12,1.2,0,2.31.28,3.22.78,2-.08,3.98-1.56,3.98-3.48-.11.86-.75,1.42-1.58,1.42-1.03,0-1.72-.7-1.72-1.7,0-1.06.72-1.78,1.83-1.78s1.75.89,1.75,2.03c0,2-1.92,3.59-3.86,3.73,1.2.78,1.95,2,1.95,3.53,0,3.39-2.42,5.34-5.98,5.34-2.64,0-3.95.67-3.95,1.92,0,1.03,1.03,1.5,2.92,1.42,1.33,0,3.14-.22,4.5-.22,2.67,0,4.2,1.42,4.2,3.86,0,2.84-2.7,4.56-7.37,4.56-3.5,0-5.48-1.06-5.48-2.92,0-1.75,1.39-2.78,3.84-2.78v-.11h-.83c-2.36-.03-3.86-.97-3.86-2.64,0-1.89,1.61-3.14,4.61-3.2v-.06ZM152.61,46.23c-2.31,0-3.59.92-3.59,2.5,0,1.67,1.89,2.64,5.2,2.64,3.92,0,5.95-1.2,5.95-3.09,0-1.25-1.31-2.06-3.45-2.06h-4.11ZM153.95,39.84c1.64,0,2.78-1.61,2.78-4.98,0-3-1.03-4.34-2.72-4.34-1.53,0-2.7,1.56-2.7,4.84s1.08,4.48,2.64,4.48"/>
      <rect class="st0" x="59.89" y="43.47" width="87.17" height=".27"/>
      <g>
        <path class="st1" d="M59.15,51.5v-4.72h1.65c1.19,0,1.6.58,1.6,1.27,0,.28-.05.52-.2.77-.21.34-.62.58-1.4.58h-1.04v2.1h-.6ZM59.75,49.07h1.12c.67,0,.93-.31.93-1.01,0-.66-.3-.94-.93-.94h-1.12v1.95Z"/>
        <path class="st1" d="M63.09,51.5v-4.72h1.8c.46,0,.8.09,1.02.24.33.23.43.58.43.98,0,.6-.32.98-.95,1.15l1.04,2.35h-.63l-.98-2.3h-1.13v2.3h-.6ZM63.69,48.86h1.19c.34,0,.58-.1.7-.27.12-.18.15-.36.15-.6,0-.2-.02-.35-.1-.51-.11-.22-.34-.37-.75-.37h-1.19v1.75Z"/>
        <path class="st1" d="M67.27,51.5v-4.72h.6v4.72h-.6Z"/>
        <path class="st1" d="M69.01,51.5v-4.72h.46l2.14,3.74v-3.74h.51v4.72h-.45l-2.14-3.66v3.66h-.51Z"/>
        <path class="st1" d="M73.86,51.5v-4.39h-1.32v-.33h3.23v.33h-1.32v4.39h-.6Z"/>
        <path class="st1" d="M76.21,51.5v-4.72h.6v4.72h-.6Z"/>
        <path class="st1" d="M77.96,51.5v-4.72h.46l2.14,3.74v-3.74h.51v4.72h-.45l-2.14-3.66v3.66h-.51Z"/>
        <path class="st1" d="M82.09,48.18c0-.98.59-1.47,1.77-1.47.57,0,.96.13,1.17.35.16.16.25.31.31.54.06.22.08.43.08.68v.03h-.6v-.07c0-.13,0-.23,0-.3,0-.07-.01-.16-.03-.27-.02-.11-.04-.2-.09-.26-.04-.06-.09-.12-.16-.18-.14-.13-.37-.18-.68-.18-.44,0-.76.1-.93.29-.17.19-.24.4-.24.66v2.36c0,.25.06.43.21.61.15.18.47.28.92.28.42,0,.71-.12.86-.29s.2-.36.2-.59v-.8h-.83v-.31h1.42v2.25h-.27l-.18-.46c-.09.16-.24.29-.47.39-.23.1-.48.15-.75.15-.74,0-1.16-.19-1.4-.44-.11-.12-.19-.28-.23-.4-.02-.06-.04-.13-.05-.21-.01-.08-.02-.14-.02-.18,0-.05,0-.1,0-.17v-2Z"/>
        <path class="st1" d="M88.28,51.5h-.6l1.33-4.72h.78l1.33,4.72h-.61l-.34-1.23h-1.55l-.34,1.23ZM88.68,50h1.41l-.71-2.78-.7,2.78Z"/>
        <path class="st1" d="M91.87,51.5v-4.72h.46l2.14,3.74v-3.74h.51v4.72h-.45l-2.14-3.66v3.66h-.51Z"/>
        <path class="st1" d="M96.12,51.5v-4.72h1.52c1.31,0,1.73.62,1.73,1.4v1.92c0,.93-.58,1.39-1.73,1.39h-1.52ZM96.72,51.17h.91c.75,0,1.12-.32,1.12-.96v-2.11c0-.66-.38-.98-1.12-.98h-.91v4.05Z"/>
        <path class="st1" d="M101.97,51.5v-4.72h1.52c1.31,0,1.73.62,1.73,1.4v1.92c0,.93-.58,1.39-1.73,1.39h-1.52ZM102.57,51.17h.91c.75,0,1.12-.32,1.12-.96v-2.11c0-.66-.38-.98-1.12-.98h-.91v4.05Z"/>
        <path class="st1" d="M106.22,51.5v-4.72h2.35v.33h-1.75v1.79h1.25v.31h-1.25v1.94h1.75v.34h-2.35Z"/>
        <path class="st1" d="M109.57,50.25c.04.26.15.49.33.68.18.19.49.31.87.31.61,0,.96-.25.96-.69,0-.18-.08-.35-.23-.52-.15-.17-.38-.36-.68-.59l-1.05-.77c-.46-.34-.71-.61-.71-.94,0-.31.14-.55.43-.74.29-.19.67-.28,1.12-.28.88,0,1.43.36,1.6,1.02l.02.04-.51.11v-.03c-.06-.24-.18-.43-.37-.58-.18-.15-.43-.23-.74-.23-.6,0-.98.21-.98.62,0,.26.2.48.55.76l.99.75.2.15c.11.08.17.13.2.16.04.03.09.07.18.15.09.07.15.13.18.17l.14.16c.06.07.11.13.12.18.05.1.1.24.1.38,0,.34-.15.6-.45.78-.29.18-.68.27-1.15.27-.99,0-1.52-.56-1.66-1.22l.53-.11Z"/>
        <path class="st1" d="M113.06,51.5v-4.72h.6v4.72h-.6Z"/>
        <path class="st1" d="M114.68,48.18c0-.98.59-1.47,1.77-1.47.57,0,.96.13,1.17.35.16.16.25.31.31.54.06.22.08.43.08.68v.03h-.6v-.07c0-.13,0-.23,0-.3s-.01-.16-.03-.27-.04-.2-.09-.26c-.04-.06-.09-.12-.16-.18-.14-.13-.37-.18-.68-.18-.44,0-.76.1-.93.29-.17.19-.24.4-.24.66v2.36c0,.25.06.43.21.61.15.18.47.28.92.28.42,0,.7-.12.86-.29s.2-.36.2-.59v-.8h-.83v-.31h1.42v2.25h-.27l-.18-.46c-.09.16-.24.29-.47.39-.23.1-.48.15-.75.15-.74,0-1.16-.19-1.4-.44-.11-.12-.19-.28-.23-.4-.02-.06-.04-.13-.05-.21-.01-.08-.02-.14-.02-.18,0-.05,0-.1,0-.17v-2Z"/>
        <path class="st1" d="M119.06,51.5v-4.72h.46l2.14,3.74v-3.74h.51v4.72h-.45l-2.14-3.66v3.66h-.51Z"/>
        <path class="st1" d="M124.78,48.15c0-.34.05-.6.21-.85.24-.36.68-.59,1.47-.59,1.05,0,1.58.48,1.58,1.44v.19h-.57v-.28c0-.31-.06-.53-.21-.72-.15-.19-.43-.29-.8-.29s-.6.07-.76.19c-.08.06-.15.13-.19.22-.09.18-.13.35-.13.6v2.16c0,.31.06.52.21.72.15.19.45.3.88.3.37,0,.65-.11.8-.3.15-.19.21-.42.21-.72v-.33h.57v.23c0,.34-.05.6-.2.85-.22.36-.64.58-1.38.59-.53,0-.92-.11-1.17-.28-.12-.08-.22-.19-.3-.31-.16-.25-.2-.52-.2-.85v-1.98Z"/>
        <path class="st1" d="M128.83,48.15c0-.33.06-.6.23-.85.25-.36.7-.59,1.49-.59.51,0,.92.1,1.17.28.4.27.54.68.54,1.16v1.98c0,.96-.57,1.45-1.71,1.45s-1.72-.48-1.72-1.45v-1.98ZM131.67,48.07c0-.67-.38-1.01-1.12-1.01s-1.13.34-1.13,1.01v2.16c0,.68.38,1.02,1.13,1.02s1.12-.34,1.12-1.02v-2.16Z"/>
        <path class="st1" d="M133.16,51.5v-.49h.72v.49h-.72Z"/>
        <path class="st1" d="M134.79,52.05c.17-.05.29-.15.35-.26.05-.11.07-.2.07-.29h-.51v-.49h.73v.06c0,.1,0,.17,0,.22,0,.05,0,.11,0,.2s0,.15-.02.19c-.01.04-.02.1-.04.16-.03.13-.07.18-.15.25-.07.08-.18.1-.31.11l-.11-.15Z"/>
        <path class="st1" d="M137.96,51.5v-4.72h.6v4.38h1.88v.34h-2.48Z"/>
        <path class="st1" d="M141.36,51.5v-4.39h-1.32v-.33h3.23v.33h-1.32v4.39h-.6Z"/>
        <path class="st1" d="M143.71,51.5v-4.72h1.52c1.31,0,1.73.62,1.73,1.4v1.92c0,.93-.58,1.39-1.73,1.39h-1.52ZM144.31,51.17h.91c.75,0,1.12-.32,1.12-.96v-2.11c0-.66-.38-.98-1.12-.98h-.91v4.05Z"/>
      </g>
    </g>
    <g>
      <path class="st3" d="M33.82,21.49c-8.98,0-16.26,7.28-16.26,16.26s7.28,16.26,16.26,16.26,16.26-7.28,16.26-16.26-7.28-16.26-16.26-16.26ZM33.1,51.93c-8.12,0-14.71-6.59-14.71-14.71s6.59-14.71,14.71-14.71,14.71,6.59,14.71,14.71-6.59,14.71-14.71,14.71Z"/>
      <path class="st3" d="M28.89,37.77c.15-.19.46-.03.38.21-.53,1.54-.9,3.69-.48,4.11-.63-.63,2.13-4.79,2.13-6.3,0-1.08-.34-1.78-.71-2.26-.17-.23-2.12.55-2.22.65,0-1.8-1.88-2.4-2.58-2.4-.95,0-2.25.51-2.62.73h0c.65-.83-.19-2.47-.62-3.2-.09-.15.03-.34.21-.33,1.28.09,4.77.41,4.77.41v-.68s2.75.27,4.75.27c.99,0,2.91-.42,4.63-.85.37-.09.56.44.21.6l-1.28.59c-.33.15-.19.65.17.6h0c.38-.05.5.49.14.61l-1.42.49c-.15.05-.2.23-.1.35.56.65,2.01,2.55,2.01,4.69,0,3.21-.96,5.28-.96,5.28,1.65-1.65,2.48-6.81.34-9.13-.1-.09,0-.11.15-.11,10.5.15,8.44,9.98,15.96,18.71.22.26-.06.63-.37.5-3.62-1.61-12.15-4.63-15.74-4.63-1.81,0-2.37.76-.41,2.86.13.14.03.38-.17.38-8.64-.2-9.4-6.12-8.94-8.55s2.75-3.57,2.75-3.57Z"/>
    </g>
  </g>
</svg>