<?xml version="1.0" encoding="UTF-8"?>
<svg id="Layer_1" xmlns="http://www.w3.org/2000/svg" version="1.1" viewBox="0 0 70.87 70.87">
  <!-- Generator: Adobe Illustrator 29.4.0, SVG Export Plug-In . SVG Version: 2.1.0 Build 152)  -->
  <defs>
    <style>
      .st0 {
        fill: #fff;
      }

      .st1 {
        fill: #ed1c24;
      }
    </style>
  </defs>
  <rect class="st1" width="70.87" height="70.87"/>
  <g>
    <g>
      <g>
        <path class="st0" d="M17.73,45.6c1.43,0,2.27.66,2.27,1.84s-.84,1.87-2.28,1.87h-1.54v2.85c0,.55.22.72.89.72h.52v.1h-3.7v-.1h.33c.51,0,.67-.16.67-.66v-5.87c0-.49-.18-.66-.67-.66h-.33v-.1h3.84ZM17.29,49.21c.92,0,1.43-.66,1.43-1.74,0-1.16-.5-1.77-1.4-1.77h-.95c-.14,0-.19.05-.19.19v3.33h1.12Z"/>
        <path class="st0" d="M17.58,53h-3.7s-.02,0-.02-.02v-.1s0-.02.02-.02h.33c.49,0,.65-.16.65-.64v-5.87c0-.47-.17-.64-.65-.64h-.33s-.02,0-.02-.02v-.1s0-.02.02-.02h3.84c1.45,0,2.28.68,2.28,1.86s-.86,1.89-2.29,1.89h-1.53v2.84c0,.54.2.71.87.71h.52s.02,0,.02.02v.1s0,.02-.02.02ZM13.9,52.96h3.66v-.06h-.51c-.68,0-.9-.18-.9-.74v-2.85s0-.02.02-.02h1.54c1.42,0,2.26-.69,2.26-1.85s-.82-1.82-2.25-1.82h-3.82v.06h.32c.5,0,.68.18.68.67v5.87c0,.5-.17.67-.68.67h-.32v.06ZM17.29,49.23h-1.11s-.02,0-.02-.02v-3.33c0-.15.05-.21.21-.21h.95c.93,0,1.42.62,1.42,1.79s-.53,1.76-1.45,1.76ZM16.19,49.19h1.1c.9,0,1.41-.63,1.41-1.73s-.48-1.76-1.38-1.76h-.95c-.13,0-.17.04-.17.17v3.31Z"/>
      </g>
      <g>
        <path class="st0" d="M22.64,48.46h.02c.2-.58.85-1.07,1.68-1.07,1.06,0,1.63.57,1.63,1.55v2.57c0,.5.15.66.65.66h.23v.1h-2.93v-.1h.19c.48,0,.61-.16.61-.66v-2.8c0-.65-.29-1-.87-1-.63,0-1.19.58-1.19,1.15v2.65c0,.5.14.66.62.66h.19v.1h-3.01v-.1h.3c.51,0,.67-.16.67-.66v-5.73c0-.44-.15-.57-.6-.57h-.36v-.1l2.13-.05.05.05v3.34Z"/>
        <path class="st0" d="M26.85,52.29h-2.93s-.02,0-.02-.02v-.1s0-.02.02-.02h.19c.46,0,.59-.14.59-.64v-2.8c0-.65-.29-.98-.85-.98-.6,0-1.17.55-1.17,1.14v2.65c0,.49.14.64.6.64h.19s.02,0,.02.02v.1s0,.02-.02.02h-3.01s-.02,0-.02-.02v-.1s0-.02.02-.02h.3c.49,0,.65-.16.65-.64v-5.73c0-.43-.14-.55-.58-.55h-.36s-.02,0-.02-.02v-.1s0-.02.02-.02l2.13-.05h0s0,0,.01,0l.05.05s0,0,0,.01v3.29c.23-.61.92-1.04,1.68-1.04,1.05,0,1.65.57,1.65,1.57v2.57c0,.49.15.64.63.64h.23s.02,0,.02.02v.1s0,.02-.02.02ZM23.94,52.25h2.89v-.06h-.21c-.5,0-.67-.16-.67-.67v-2.57c0-.99-.57-1.54-1.61-1.54-.76,0-1.45.43-1.66,1.06,0,0,0,.01-.02.01h-.02s-.02,0-.02-.02v-3.33l-.04-.04-2.11.05v.06h.34c.46,0,.62.15.62.59v5.73c0,.5-.17.67-.68.67h-.28v.06h2.98v-.06h-.17c-.48,0-.64-.16-.64-.67v-2.65c0-.6.59-1.17,1.21-1.17.58,0,.88.35.88,1.02v2.8c0,.52-.15.67-.63.67h-.17v.06Z"/>
      </g>
      <g>
        <path class="st0" d="M32.15,51.59c0,.44.14.58.6.58h.67v.1l-2.44.06-.05-.05v-.96h-.03c-.21.56-.84,1.07-1.67,1.07-1.06,0-1.63-.57-1.63-1.55v-2.57c0-.5-.15-.66-.65-.66h-.23v-.1h2.08l.05.05v3.51c0,.65.29,1,.86,1,.64,0,1.19-.59,1.19-1.15v-2.65c0-.5-.13-.66-.61-.66h-.19v-.1h2l.05.05v4.04Z"/>
        <path class="st0" d="M29.24,52.4c-1.05,0-1.65-.57-1.65-1.57v-2.57c0-.49-.15-.64-.63-.64h-.23s-.02,0-.02-.02v-.1s0-.02.02-.02h2.08s0,0,.01,0l.05.05s0,0,0,.01v3.51c0,.65.28.98.84.98.6,0,1.17-.55,1.17-1.14v-2.65c0-.5-.13-.64-.59-.64h-.19s-.02,0-.02-.02v-.1s0-.02.02-.02h2s0,0,.01,0l.05.05s0,0,0,.01v4.04c0,.43.14.56.58.56h.67s.02,0,.02.02v.1s0,.02-.02.02l-2.44.06h0s0,0-.01,0l-.05-.05s0,0,0-.01v-.94c-.2.52-.81,1.07-1.68,1.07ZM26.75,47.58h.21c.5,0,.67.16.67.68v2.57c0,.99.57,1.54,1.61,1.54.86,0,1.46-.55,1.65-1.06,0,0,0-.01.02-.01h.03s.02,0,.02.02v.96l.04.04,2.41-.06v-.06h-.65c-.46,0-.62-.15-.62-.6v-4.03l-.04-.04h-1.98v.06h.17c.48,0,.63.16.63.68v2.65c0,.6-.59,1.17-1.21,1.17-.57,0-.87-.35-.87-1.02v-3.5l-.04-.04h-2.05v.06Z"/>
      </g>
      <g>
        <path class="st0" d="M36.37,45.69c-.51,0-.66.16-.66.66v5.63c0,.14.05.19.19.19h1.59c.84,0,1.34-.46,1.82-2.38h.1s-.36,2.43-.36,2.43l-.05.05h-5.58v-.1h.34c.51,0,.66-.16.66-.66v-5.16c0-.5-.15-.66-.66-.66h-.31v-.1h3.21v.1h-.29Z"/>
        <path class="st0" d="M39,52.29h-5.58s-.02,0-.02-.02v-.1s0-.02.02-.02h.34c.49,0,.64-.15.64-.64v-5.16c0-.49-.15-.64-.64-.64h-.31s-.02,0-.02-.02v-.1s0-.02.02-.02h3.21s.02,0,.02.02v.1s0,.02-.02.02h-.29c-.49,0-.64.15-.64.64v5.63c0,.13.04.17.17.17h1.59c.79,0,1.31-.38,1.8-2.37,0,0,0-.01.02-.01,0,0,0,0,0,0h.1s0,.01.01.02c0,0,0,0,0,.01l-.36,2.42s0,0,0,0l-.05.05s0,0-.01,0ZM33.44,52.25h5.56l.04-.04.36-2.4h-.06c-.5,1.99-1.03,2.37-1.83,2.37h-1.59c-.15,0-.21-.06-.21-.21v-5.63c0-.51.16-.67.68-.67h.27v-.06h-3.18v.06h.3c.51,0,.67.16.67.67v5.16c0,.51-.16.67-.67.67h-.33v.06Z"/>
      </g>
      <g>
        <path class="st0" d="M45.34,49.72c0,1.5-1.04,2.67-2.67,2.67s-2.53-.92-2.53-2.42c0-1.39.95-2.57,2.67-2.57,1.31,0,2.53.71,2.53,2.33M41.44,49.96c0,1.52.5,2.34,1.29,2.33.86,0,1.31-.9,1.3-2.59-.02-1.58-.55-2.21-1.29-2.21s-1.3.91-1.3,2.48"/>
        <path class="st0" d="M42.67,52.4c-1.57,0-2.55-.93-2.55-2.44,0-.71.25-1.35.7-1.82.49-.5,1.17-.77,1.99-.77,1.17,0,2.54.61,2.55,2.34,0,.75-.26,1.44-.75,1.93-.49.49-1.16.76-1.94.76ZM42.81,47.41c-1.56,0-2.65,1.05-2.65,2.56s.96,2.4,2.52,2.4c.77,0,1.43-.26,1.91-.75.48-.48.74-1.16.74-1.91h0c-.01-1.7-1.36-2.31-2.52-2.31ZM42.7,52.31c-.27,0-.5-.1-.69-.28-.38-.37-.58-1.08-.58-2.06,0-1.52.52-2.49,1.31-2.49.58,0,1.28.39,1.3,2.23,0,.84-.1,1.5-.32,1.94-.22.44-.56.67-.99.67h-.03ZM42.74,47.5c-.78,0-1.28.97-1.28,2.46,0,.97.2,1.67.57,2.03.19.18.41.27.67.27,0,0,.02,0,.03,0,.42,0,.75-.22.96-.65.22-.44.33-1.08.32-1.92-.02-1.43-.46-2.19-1.27-2.19Z"/>
      </g>
      <g>
        <path class="st0" d="M47.88,48.46c.21-.56.85-1.07,1.67-1.07,1.06,0,1.63.57,1.63,1.55v2.57c0,.5.16.66.65.66h.24v.1h-2.94v-.1h.2c.47,0,.61-.16.61-.66v-2.8c0-.65-.29-1-.87-1-.63,0-1.19.59-1.19,1.15v2.65c0,.5.14.66.61.66h.19v.1h-3v-.1h.3c.51,0,.66-.16.66-.66v-3.34c0-.44-.14-.58-.59-.58h-.36v-.1l2.17-.05.05.05-.05.95h.03Z"/>
        <path class="st0" d="M52.07,52.29h-2.93s-.02,0-.02-.02v-.1s0-.02.02-.02h.2c.45,0,.59-.15.59-.64v-2.8c0-.65-.29-.98-.85-.98-.59,0-1.17.56-1.17,1.14v2.65c0,.49.14.64.59.64h.19s.02,0,.02.02v.1s0,.02-.02.02h-3s-.02,0-.02-.02v-.1s0-.02.02-.02h.3c.49,0,.64-.15.64-.64v-3.34c0-.43-.13-.56-.57-.56h-.36s-.02,0-.02-.02v-.1s0-.02.02-.02l2.17-.05h0s0,0,.01,0l.05.05s0,0,0,.01l-.05.93c.2-.52.81-1.06,1.68-1.06,1.05,0,1.65.57,1.65,1.57v2.57c0,.48.15.64.63.64h.24s.02,0,.02.02v.1s0,.02-.02.02ZM49.15,52.25h2.9v-.06h-.22c-.5,0-.67-.17-.67-.67v-2.57c0-.99-.57-1.54-1.61-1.54-.86,0-1.46.55-1.65,1.06,0,0,0,.01-.02.01h-.03s0,0-.01,0c0,0,0,0,0-.01l.05-.95-.04-.04-2.15.05v.06h.34c.45,0,.61.15.61.6v3.34c0,.51-.16.67-.67.67h-.28v.06h2.97v-.06h-.17c-.47,0-.63-.16-.63-.67v-2.65c0-.59.6-1.17,1.21-1.17s.88.35.88,1.02v2.8c0,.51-.15.67-.63.67h-.18v.06Z"/>
      </g>
      <g>
        <path class="st0" d="M54.1,51.36c-1.2-.2-1.89-.91-1.89-1.96,0-1.28,1-2.18,2.67-2.18.51,0,.98.12,1.38.33.85-.04,1.7-.66,1.7-1.48-.05.37-.32.6-.68.6-.44,0-.74-.3-.74-.72,0-.45.31-.76.78-.76s.75.38.75.87c0,.85-.82,1.53-1.65,1.59.51.33.83.85.83,1.51,0,1.45-1.03,2.28-2.55,2.28-1.13,0-1.68.28-1.68.82,0,.44.44.64,1.25.6.57,0,1.34-.09,1.92-.09,1.14,0,1.79.6,1.79,1.65,0,1.21-1.15,1.94-3.14,1.94-1.49,0-2.34-.45-2.34-1.25,0-.75.59-1.19,1.64-1.19v-.05h-.36c-1.01-.01-1.65-.42-1.65-1.13,0-.81.69-1.34,1.97-1.36v-.02ZM54.14,54.04c-.98,0-1.53.39-1.53,1.07,0,.71.81,1.13,2.22,1.13,1.67,0,2.54-.51,2.54-1.32,0-.53-.56-.88-1.47-.88h-1.76ZM54.71,51.32c.7,0,1.19-.69,1.19-2.12,0-1.28-.44-1.85-1.16-1.85-.65,0-1.15.66-1.15,2.06s.46,1.91,1.13,1.91"/>
        <path class="st0" d="M54.84,56.37c-1.5,0-2.35-.46-2.35-1.26s.6-1.2,1.64-1.2h0s-.34-.01-.34-.01c-1.04-.01-1.67-.44-1.67-1.14,0-.83.72-1.34,1.93-1.38-1.18-.21-1.85-.93-1.85-1.97,0-1.34,1.05-2.2,2.69-2.2.5,0,.98.12,1.38.33.74-.03,1.54-.54,1.66-1.27-.11.26-.35.43-.64.43-.44,0-.75-.3-.75-.74,0-.46.32-.78.8-.78.45,0,.76.36.76.88,0,.87-.83,1.52-1.62,1.6.51.35.8.88.8,1.49,0,1.42-.98,2.29-2.57,2.29-1.11,0-1.67.27-1.67.8,0,.14.05.26.14.35.19.18.55.26,1.08.23.28,0,.62-.02.95-.05.33-.02.68-.05.97-.05,1.15,0,1.81.61,1.81,1.67,0,1.23-1.18,1.96-3.16,1.96ZM54.88,47.24c-1.61,0-2.65.85-2.65,2.17,0,1.03.68,1.74,1.87,1.94,0,0,.01,0,.01.02v.02s0,.02-.02.02c-1.22.02-1.95.53-1.95,1.35,0,.68.61,1.1,1.63,1.11h.36s.02,0,.02.02v.05s0,.02-.02.02c-1.03,0-1.62.43-1.62,1.17,0,.78.85,1.23,2.32,1.23,1.96,0,3.13-.72,3.13-1.93,0-1.04-.65-1.63-1.77-1.63-.29,0-.64.02-.97.05-.33.02-.67.05-.95.05-.06,0-.12,0-.18,0-.45,0-.76-.08-.93-.25-.1-.1-.15-.23-.15-.38,0-.55.57-.84,1.7-.84,1.56,0,2.53-.87,2.53-2.26,0-.62-.29-1.15-.82-1.49,0,0,0-.01,0-.02s0-.01.02-.01c.79-.06,1.63-.7,1.63-1.57,0-.5-.3-.85-.73-.85-.46,0-.77.3-.77.74s.29.71.72.71c.35,0,.61-.24.66-.59,0,0,0-.01.02-.01,0,0,0,0,0,0,0,0,.02,0,.02.02,0,.85-.89,1.46-1.71,1.5,0,0,0,0,0,0-.4-.22-.87-.33-1.37-.33ZM54.83,56.26c-1.42,0-2.24-.42-2.24-1.14s.56-1.09,1.55-1.09h1.76c.92,0,1.49.34,1.49.9,0,.85-.93,1.33-2.56,1.33ZM54.14,54.06c-.96,0-1.51.38-1.51,1.05,0,.71.8,1.11,2.2,1.11,1.6,0,2.52-.47,2.52-1.3,0-.53-.56-.86-1.45-.86h-1.76ZM54.71,51.33c-.76,0-1.14-.65-1.14-1.93s.44-2.08,1.17-2.08c.77,0,1.18.65,1.18,1.87,0,1.36-.44,2.14-1.2,2.14ZM54.73,47.36c-.71,0-1.13.76-1.13,2.05s.37,1.89,1.11,1.89,1.17-.77,1.17-2.11c0-1.2-.4-1.83-1.15-1.83Z"/>
      </g>
      <g>
        <rect class="st0" x="14.58" y="52.86" width="37.19" height=".11"/>
        <path class="st0" d="M51.77,53H14.58s-.02,0-.02-.02v-.11s0-.02.02-.02h37.19s.02,0,.02.02v.11s0,.02-.02.02ZM14.59,52.96h37.16v-.08H14.59v.08Z"/>
      </g>
      <g>
        <g>
          <path class="st0" d="M14.26,56.29v-2.01h.71c.51,0,.68.25.68.54,0,.12-.02.22-.09.33-.09.15-.26.25-.6.25h-.44v.9h-.26ZM14.52,55.25h.48c.29,0,.4-.13.4-.43,0-.28-.13-.4-.4-.4h-.48v.83Z"/>
          <path class="st0" d="M14.52,56.31h-.26s-.01,0-.01-.01v-2.01s0-.01.01-.01h.71c.61,0,.7.35.7.56,0,.13-.03.24-.09.33-.11.17-.31.26-.61.26h-.43v.88s0,.01-.01.01ZM14.28,56.28h.23v-.88s0-.01.01-.01h.44c.29,0,.49-.08.59-.24.06-.09.08-.19.08-.32,0-.34-.24-.53-.67-.53h-.69v1.98ZM15.01,55.27h-.49s-.01,0-.01-.01v-.83s0-.01.01-.01h.48c.28,0,.41.13.41.42,0,.17-.03.28-.11.35-.06.06-.16.09-.29.09ZM14.53,55.24h.47c.13,0,.21-.03.27-.09.07-.07.1-.17.1-.33,0-.27-.12-.39-.38-.39h-.46v.8Z"/>
        </g>
        <g>
          <path class="st0" d="M15.94,56.29v-2.01h.77c.2,0,.34.04.43.1.14.1.19.25.19.42,0,.26-.14.42-.4.49l.44,1h-.27l-.42-.98h-.48v.98h-.26ZM16.2,55.16h.51c.15,0,.25-.04.3-.12.05-.07.07-.15.07-.26,0-.09,0-.15-.04-.22-.05-.1-.15-.16-.32-.16h-.51v.74Z"/>
          <path class="st0" d="M17.37,56.31h-.27s-.01,0-.01,0l-.41-.97h-.46v.97s0,.01-.01.01h-.26s-.01,0-.01-.01v-2.01s0-.01.01-.01h.77c.19,0,.34.04.44.1.13.09.19.23.19.43,0,.26-.13.43-.4.5l.44.99s0,0,0,.01c0,0,0,0-.01,0ZM17.11,56.28h.24l-.44-.98s0,0,0-.01,0,0,0,0c.26-.07.39-.22.39-.48,0-.19-.06-.32-.18-.41-.09-.06-.25-.1-.43-.1h-.75v1.98h.23v-.97s0-.01.01-.01h.48s.01,0,.01,0l.41.97ZM16.71,55.18h-.51s-.01,0-.01-.01v-.74s0-.01.01-.01h.51c.21,0,.3.09.33.17.04.07.04.14.04.22,0,.1-.01.18-.07.26-.05.08-.16.12-.31.12ZM16.21,55.15h.5c.14,0,.24-.04.29-.11.05-.08.06-.15.06-.25,0-.08,0-.14-.04-.21-.05-.1-.15-.15-.31-.15h-.5v.72Z"/>
        </g>
        <g>
          <path class="st0" d="M17.73,56.29v-2.01h.25v2.01h-.25Z"/>
          <path class="st0" d="M17.98,56.31h-.25s-.01,0-.01-.01v-2.01s0-.01.01-.01h.25s.01,0,.01.01v2.01s0,.01-.01.01ZM17.74,56.28h.22v-1.98h-.22v1.98Z"/>
        </g>
        <g>
          <path class="st0" d="M18.47,56.29v-2.01h.2l.91,1.59v-1.59h.22v2.01h-.19l-.91-1.56v1.56h-.22Z"/>
          <path class="st0" d="M19.79,56.31h-.19s0,0-.01,0l-.89-1.51v1.51s0,.01-.01.01h-.22s-.01,0-.01-.01v-2.01s0-.01.01-.01h.2s0,0,.01,0l.89,1.55v-1.54s0-.01.01-.01h.22s.01,0,.01.01v2.01s0,.01-.01.01ZM19.61,56.28h.17v-1.98h-.19v1.58s0,.01-.01.01c0,0-.01,0-.02,0l-.91-1.59h-.17v1.98h.19v-1.55s0-.01.01-.01c0,0,.01,0,.02,0l.91,1.55Z"/>
        </g>
        <g>
          <path class="st0" d="M20.54,56.29v-1.87h-.56v-.14h1.38v.14h-.56v1.87h-.25Z"/>
          <path class="st0" d="M20.79,56.31h-.25s-.01,0-.01-.01v-1.86h-.55s-.01,0-.01-.01v-.14s0-.01.01-.01h1.38s.01,0,.01.01v.14s0,.01-.01.01h-.55v1.86s0,.01-.01.01ZM20.55,56.28h.22v-1.86s0-.01.01-.01h.55v-.11h-1.35v.11h.55s.01,0,.01.01v1.86Z"/>
        </g>
        <g>
          <path class="st0" d="M21.54,56.29v-2.01h.25v2.01h-.25Z"/>
          <path class="st0" d="M21.8,56.31h-.25s-.01,0-.01-.01v-2.01s0-.01.01-.01h.25s.01,0,.01.01v2.01s0,.01-.01.01ZM21.56,56.28h.23v-1.98h-.23v1.98Z"/>
        </g>
        <g>
          <path class="st0" d="M22.29,56.29v-2.01h.2l.91,1.59v-1.59h.22v2.01h-.19l-.91-1.56v1.56h-.22Z"/>
          <path class="st0" d="M23.61,56.31h-.19s0,0-.01,0l-.89-1.51v1.51s0,.01-.01.01h-.22s-.01,0-.01-.01v-2.01s0-.01.01-.01h.2s0,0,.01,0l.89,1.55v-1.54s0-.01.01-.01h.22s.01,0,.01.01v2.01s0,.01-.01.01ZM23.43,56.28h.17v-1.98h-.19v1.58s0,.01-.01.01c0,0-.01,0-.02,0l-.91-1.59h-.17v1.98h.19v-1.55s0-.01.01-.01c0,0,.01,0,.02,0l.91,1.55Z"/>
        </g>
        <g>
          <path class="st0" d="M24.05,54.88c0-.42.25-.63.76-.63.24,0,.41.05.5.15.07.07.11.13.13.23.03.1.03.18.03.29h0s-.26.01-.26.01h0v-.03c0-.06,0-.1,0-.13,0-.03,0-.07-.01-.12,0-.05-.02-.09-.04-.11-.02-.03-.04-.05-.07-.08-.06-.06-.16-.08-.29-.08-.19,0-.32.04-.4.13-.07.08-.1.17-.1.28v1.01c0,.11.03.18.09.26.07.07.2.12.39.12.18,0,.3-.05.37-.12s.09-.15.09-.25v-.34h-.35v-.13h.61v.96h-.11l-.08-.2c-.04.07-.1.12-.2.17-.1.04-.2.06-.32.06-.31,0-.49-.08-.6-.19-.05-.05-.08-.12-.1-.17,0-.03-.01-.05-.02-.09,0-.03,0-.06,0-.08,0-.02,0-.04,0-.07v-.85Z"/>
          <path class="st0" d="M24.78,56.34c-.28,0-.48-.06-.61-.19-.06-.06-.09-.15-.1-.18,0-.03-.02-.06-.02-.09,0-.03,0-.05,0-.07h0s0-.06,0-.09v-.85c0-.43.26-.64.77-.64.25,0,.41.05.51.16.07.07.11.14.13.24.02.09.03.18.03.29h0s0,.03-.01.03h-.26s-.01,0-.01-.01v-.03c0-.05,0-.1,0-.13,0-.03,0-.07-.01-.11,0-.05-.02-.08-.03-.1-.02-.02-.04-.05-.07-.08-.05-.05-.14-.07-.28-.07-.18,0-.32.04-.39.12-.07.07-.1.16-.1.27v1.01c0,.1.02.18.09.25.06.07.2.11.38.11.16,0,.29-.04.36-.12.06-.07.08-.14.08-.24v-.33h-.34s-.01,0-.01-.01v-.13s0-.01.01-.01h.61s.01,0,.01.01v.96s0,.01-.01.01h-.11s-.01,0-.01,0l-.06-.17c-.04.06-.1.11-.19.15-.1.04-.21.06-.33.06ZM24.8,54.26c-.5,0-.74.2-.74.61v.85s0,.05,0,.07h0s0,.05,0,.08c0,.03.01.06.02.09,0,.02.04.11.1.17.12.12.32.18.59.18.11,0,.22-.02.31-.06.09-.04.16-.09.19-.16,0,0,.01,0,.01,0,0,0,.01,0,.01,0l.07.19h.09v-.93h-.58v.1h.34s.01,0,.01.01v.34c0,.11-.03.19-.09.26-.05.06-.16.13-.38.13-.19,0-.33-.04-.4-.12-.06-.08-.09-.16-.09-.27v-1.01c0-.12.03-.21.11-.29.08-.09.22-.13.41-.13.15,0,.24.03.3.08.03.03.06.06.07.08.02.03.03.07.04.12,0,.04,0,.08.01.12,0,.03,0,.07,0,.13v.02h.23c0-.11,0-.2-.03-.29-.02-.09-.06-.16-.13-.22-.09-.1-.25-.14-.49-.15Z"/>
        </g>
        <g>
          <path class="st0" d="M26.69,56.29h-.26l.57-2.01h.33l.57,2.01h-.26l-.14-.53h-.66l-.15.53ZM26.86,55.65h.6l-.3-1.19-.3,1.19Z"/>
          <path class="st0" d="M27.9,56.31h-.26s-.01,0-.01-.01l-.14-.51h-.64l-.14.51s0,.01-.01.01h-.26s0,0-.01,0c0,0,0,0,0-.01l.57-2.01s0-.01.01-.01h.33s.01,0,.01.01l.57,2.01s0,0,0,.01c0,0,0,0-.01,0ZM27.65,56.28h.23l-.56-1.98h-.31l-.56,1.98h.23l.14-.51s0-.01.01-.01h.66s.01,0,.01.01l.14.51ZM27.47,55.66h-.6s0,0-.01,0,0,0,0-.01l.3-1.19s.03-.01.03,0l.3,1.19s0,0,0,.01,0,0-.01,0ZM26.88,55.63h.57l-.28-1.11-.28,1.11Z"/>
        </g>
        <g>
          <path class="st0" d="M28.22,56.29v-2.01h.2l.91,1.59v-1.59h.22v2.01h-.19l-.91-1.56v1.56h-.22Z"/>
          <path class="st0" d="M29.55,56.31h-.19s0,0-.01,0l-.89-1.51v1.51s0,.01-.01.01h-.22s-.01,0-.01-.01v-2.01s0-.01.01-.01h.2s0,0,.01,0l.89,1.55v-1.54s0-.01.01-.01h.22s.01,0,.01.01v2.01s0,.01-.01.01ZM29.36,56.28h.17v-1.98h-.19v1.58s0,.01-.01.01c0,0-.01,0-.02,0l-.91-1.59h-.17v1.98h.19v-1.55s0-.01.01-.01c0,0,.01,0,.02,0l.91,1.55Z"/>
        </g>
        <g>
          <path class="st0" d="M30.03,56.29v-2.01h.65c.56,0,.74.27.74.6v.82c0,.4-.25.59-.74.59h-.65ZM30.29,56.15h.39c.32,0,.48-.14.48-.41v-.9c0-.28-.16-.42-.48-.42h-.39v1.73Z"/>
          <path class="st0" d="M30.68,56.31h-.65s-.01,0-.01-.01v-2.01s0-.01.01-.01h.65c.5,0,.75.21.75.61v.82c0,.4-.25.61-.75.61ZM30.05,56.28h.63c.49,0,.72-.19.72-.58v-.82c0-.39-.24-.59-.72-.59h-.63v1.98ZM30.68,56.16h-.39s-.01,0-.01-.01v-1.73s0-.01.01-.01h.39c.33,0,.49.15.49.43v.9c0,.28-.17.42-.49.42ZM30.31,56.13h.37c.31,0,.47-.13.47-.4v-.9c0-.27-.15-.4-.47-.4h-.37v1.7Z"/>
        </g>
        <g>
          <path class="st0" d="M32.53,56.29v-2.01h.65c.56,0,.74.27.74.6v.82c0,.4-.25.59-.74.59h-.65ZM32.79,56.15h.39c.32,0,.48-.14.48-.41v-.9c0-.28-.16-.42-.48-.42h-.39v1.73Z"/>
          <path class="st0" d="M33.18,56.31h-.65s-.01,0-.01-.01v-2.01s0-.01.01-.01h.65c.5,0,.75.21.75.61v.82c0,.4-.25.61-.75.61ZM32.54,56.28h.63c.49,0,.72-.19.72-.58v-.82c0-.39-.24-.59-.72-.59h-.63v1.98ZM33.18,56.16h-.39s-.01,0-.01-.01v-1.73s0-.01.01-.01h.39c.33,0,.49.15.49.43v.9c0,.28-.17.42-.49.42ZM32.8,56.13h.37c.31,0,.47-.13.47-.4v-.9c0-.27-.15-.4-.47-.4h-.37v1.7Z"/>
        </g>
        <g>
          <path class="st0" d="M34.34,56.29v-2.01h1v.14h-.75v.76h.53v.13h-.53v.83h.75v.14h-1Z"/>
          <path class="st0" d="M35.35,56.31h-1s-.01,0-.01-.01v-2.01s0-.01.01-.01h1s.01,0,.01.01v.14s0,.01-.01.01h-.73v.74h.52s.01,0,.01.01v.13s0,.01-.01.01h-.52v.8h.73s.01,0,.01.01v.14s0,.01-.01.01ZM34.36,56.28h.97v-.12h-.73s-.01,0-.01-.01v-.83s0-.01.01-.01h.52v-.11h-.52s-.01,0-.01-.01v-.76s0-.01.01-.01h.73v-.11h-.97v1.98Z"/>
        </g>
        <g>
          <path class="st0" d="M35.77,55.76c.02.11.06.21.14.29.08.08.21.13.37.13.26,0,.41-.11.41-.29,0-.08-.03-.15-.1-.22-.07-.07-.16-.16-.29-.25l-.45-.33c-.2-.14-.3-.26-.3-.4,0-.13.06-.24.19-.31.13-.08.28-.12.48-.12.37,0,.61.15.68.44v.02s-.21.05-.21.05h0c-.02-.11-.07-.2-.16-.26-.08-.06-.18-.1-.31-.1-.26,0-.42.09-.42.27,0,.11.09.21.24.32l.42.32.08.06s.07.06.09.07c.01.01.04.03.08.06.04.03.06.05.08.07l.06.07s.04.06.05.08c.02.04.04.1.04.16,0,.14-.06.25-.19.33-.13.08-.29.12-.49.12-.42,0-.65-.24-.71-.52l.23-.05Z"/>
          <path class="st0" d="M36.25,56.34c-.38,0-.65-.2-.72-.53,0,0,0,0,0-.01,0,0,0,0,0,0l.23-.05s0,0,.01,0c0,0,0,0,0,0,.02.11.06.21.14.28.08.08.21.13.36.13.25,0,.39-.1.39-.28,0-.07-.03-.14-.09-.21-.07-.07-.16-.16-.29-.25l-.45-.33c-.19-.14-.31-.26-.31-.41,0-.14.06-.25.19-.33.13-.08.29-.12.49-.12.38,0,.62.16.7.45v.02s0,0,0,.01,0,0,0,0l-.22.05s-.01,0-.02-.01h0c-.02-.11-.07-.19-.15-.25-.08-.06-.18-.09-.3-.09-.26,0-.4.09-.4.25,0,.09.07.18.23.31l.5.38s.07.05.09.07c.01,0,.03.03.07.05h.01s.06.07.08.08l.06.07s.05.06.06.08c.01.03.04.1.04.17,0,.15-.07.26-.2.34-.13.08-.29.12-.5.12ZM35.56,55.82c.07.31.33.49.69.49.2,0,.36-.04.48-.11.12-.08.18-.18.18-.32,0-.06-.03-.13-.04-.16,0-.02-.03-.05-.05-.07l-.06-.07s-.04-.04-.08-.07h-.01s-.05-.05-.06-.06c0,0-.03-.03-.09-.07l-.5-.38c-.13-.1-.24-.21-.24-.33,0-.18.16-.28.43-.28.13,0,.24.03.32.1.08.07.14.15.16.25h0s.19-.04.19-.04h0c-.07-.28-.3-.43-.67-.43-.19,0-.35.04-.47.12-.12.08-.18.18-.18.3s.08.23.3.39l.45.33c.13.09.22.18.29.25.07.07.1.15.1.23,0,.2-.15.31-.42.31-.16,0-.3-.05-.38-.14-.07-.08-.12-.17-.14-.28l-.2.04Z"/>
        </g>
        <g>
          <path class="st0" d="M37.26,56.29v-2.01h.25v2.01h-.25Z"/>
          <path class="st0" d="M37.51,56.31h-.25s-.01,0-.01-.01v-2.01s0-.01.01-.01h.25s.01,0,.01.01v2.01s0,.01-.01.01ZM37.28,56.28h.23v-1.98h-.23v1.98Z"/>
        </g>
        <g>
          <path class="st0" d="M37.95,54.88c0-.42.25-.63.76-.63.24,0,.41.05.5.15.07.07.11.13.13.23.03.1.03.18.03.29h0s-.26.01-.26.01h0v-.03c0-.06,0-.1,0-.13s0-.07-.01-.12-.02-.09-.04-.11c-.02-.03-.04-.05-.07-.08-.06-.06-.16-.08-.29-.08-.19,0-.32.04-.4.13-.07.08-.1.17-.1.28v1.01c0,.11.03.18.09.26.07.07.2.12.39.12.18,0,.3-.05.37-.12s.09-.15.09-.25v-.34h-.35v-.13h.61v.96h-.11l-.08-.2c-.04.07-.1.12-.2.17-.1.04-.2.06-.32.06-.31,0-.49-.08-.6-.19-.05-.05-.08-.12-.1-.17,0-.03-.01-.05-.02-.09,0-.03,0-.06,0-.08,0-.02,0-.04,0-.07v-.85Z"/>
          <path class="st0" d="M38.68,56.34c-.28,0-.48-.06-.61-.19-.06-.06-.09-.15-.1-.18,0-.03-.02-.06-.02-.09,0-.03,0-.06,0-.08s0-.05,0-.07v-.85c0-.43.26-.64.77-.64.25,0,.41.05.51.16.07.07.11.14.13.24.02.09.03.18.03.29h0s0,.03-.01.03h-.26s-.01,0-.01-.01v-.03c0-.05,0-.1,0-.13,0-.03,0-.07-.01-.11,0-.05-.02-.08-.03-.1-.02-.02-.04-.05-.07-.08-.05-.05-.14-.07-.28-.07-.18,0-.31.04-.39.12-.07.07-.1.16-.1.27v1.01c0,.1.02.18.09.25.06.07.2.11.38.11.16,0,.29-.04.35-.12.06-.07.08-.14.08-.24v-.33h-.34s-.01,0-.01-.01v-.13s0-.01.01-.01h.61s.01,0,.01.01v.96s0,.01-.01.01h-.11s-.01,0-.01,0l-.07-.17c-.04.06-.1.11-.19.15-.1.04-.21.06-.33.06ZM38.71,54.26c-.5,0-.74.2-.74.61v.85s0,.05,0,.07c0,.02,0,.05,0,.08,0,.03.01.06.02.09,0,.02.04.11.1.17.12.12.32.18.59.18.11,0,.22-.02.31-.06.09-.04.16-.09.19-.16,0,0,0,0,.01,0h0s.01,0,.01,0l.07.19h.09v-.93h-.58v.1h.34s.01,0,.01.01v.34c0,.11-.03.19-.09.26-.07.08-.2.13-.38.13-.19,0-.33-.04-.4-.12-.07-.08-.09-.16-.09-.27v-1.01c0-.12.03-.21.11-.29.08-.09.22-.13.41-.13.15,0,.24.03.3.08.03.03.06.06.07.08.02.03.03.06.04.12,0,.05.01.09.01.12,0,.03,0,.07,0,.13v.02h.23c0-.11,0-.2-.03-.29-.02-.09-.06-.16-.13-.22-.09-.1-.25-.14-.49-.15Z"/>
        </g>
        <g>
          <path class="st0" d="M39.82,56.29v-2.01h.2l.91,1.59v-1.59h.22v2.01h-.19l-.91-1.56v1.56h-.22Z"/>
          <path class="st0" d="M41.15,56.31h-.19s0,0-.01,0l-.89-1.51v1.51s0,.01-.01.01h-.22s-.01,0-.01-.01v-2.01s0-.01.01-.01h.2s0,0,.01,0l.89,1.55v-1.54s0-.01.01-.01h.22s.01,0,.01.01v2.01s0,.01-.01.01ZM40.96,56.28h.17v-1.98h-.19v1.58s0,.01-.01.01c0,0-.01,0-.02,0l-.91-1.59h-.17v1.98h.19v-1.55s0-.01.01-.01c0,0,.01,0,.02,0l.91,1.55Z"/>
        </g>
        <g>
          <path class="st0" d="M42.26,54.86c0-.14.02-.26.09-.36.1-.16.29-.25.63-.25.45,0,.67.21.67.61v.08h-.24v-.12c0-.13-.03-.23-.09-.31-.06-.08-.18-.12-.34-.12s-.26.03-.33.08c-.04.02-.06.06-.08.09-.04.07-.06.15-.06.26v.92c0,.13.03.22.09.31.07.08.19.13.37.13.16,0,.28-.05.34-.13.07-.08.09-.18.09-.31v-.14h.24v.1c0,.14-.02.26-.09.36-.09.15-.27.25-.59.25-.23,0-.39-.05-.5-.12-.05-.04-.1-.08-.13-.13-.07-.11-.09-.22-.09-.36v-.84Z"/>
          <path class="st0" d="M42.98,56.34c-.21,0-.39-.04-.51-.12-.05-.04-.1-.08-.13-.14-.06-.1-.09-.21-.09-.37v-.84c0-.16.03-.27.09-.37.12-.18.32-.26.64-.26.46,0,.69.21.69.63v.08s0,.01-.01.01h-.24s-.01,0-.01-.01v-.12c0-.13-.03-.22-.09-.3-.06-.08-.17-.12-.33-.12-.14,0-.25.03-.32.08-.03.02-.06.05-.08.09-.04.07-.05.14-.05.25v.92c0,.13.03.22.09.3.06.08.19.12.36.12.15,0,.27-.04.33-.12.06-.07.09-.17.09-.3v-.14s0-.01.01-.01h.24s.01,0,.01.01v.1c0,.16-.03.27-.09.37-.1.17-.3.26-.6.26ZM42.98,54.26c-.3,0-.51.08-.61.25-.06.09-.09.2-.09.35v.84c0,.16.02.26.08.36.03.05.07.09.12.13.11.08.29.12.49.12.29,0,.48-.08.58-.25.06-.1.08-.2.08-.36v-.08h-.21v.12c0,.14-.03.24-.09.32-.07.08-.19.13-.35.13-.18,0-.32-.05-.39-.13-.06-.09-.09-.18-.09-.32v-.92c0-.11.02-.19.06-.26.02-.04.05-.07.09-.1.07-.06.19-.08.33-.08.17,0,.29.05.35.13.06.08.09.18.09.32v.1h.21v-.07c0-.4-.22-.6-.66-.6Z"/>
        </g>
        <g>
          <path class="st0" d="M43.99,54.86c0-.14.02-.26.1-.36.1-.16.3-.25.64-.25.22,0,.39.04.5.12.17.11.23.29.23.5v.84c0,.41-.24.62-.73.62s-.73-.21-.73-.62v-.84ZM45.2,54.83c0-.29-.16-.43-.48-.43s-.48.14-.48.43v.92c0,.29.16.43.48.43s.48-.15.48-.43v-.92Z"/>
          <path class="st0" d="M44.72,56.34c-.5,0-.75-.21-.75-.63v-.84c0-.16.03-.27.1-.37.12-.17.33-.26.65-.26.22,0,.39.04.51.12.16.11.24.27.24.51v.84c0,.42-.25.63-.75.63ZM44.72,54.26c-.31,0-.51.08-.62.25-.07.09-.09.2-.09.35v.84c0,.41.23.6.72.6s.72-.2.72-.6v-.84c0-.22-.07-.38-.23-.48-.11-.08-.28-.12-.49-.12ZM44.72,56.2c-.33,0-.49-.15-.49-.45v-.92c0-.3.17-.45.49-.45s.49.15.49.45v.92c0,.3-.17.45-.49.45ZM44.72,54.41c-.31,0-.47.14-.47.42v.92c0,.28.15.42.47.42s.46-.14.46-.42v-.92c0-.28-.15-.42-.46-.42Z"/>
        </g>
        <g>
          <path class="st0" d="M45.84,56.29v-.21h.31v.21h-.31Z"/>
          <path class="st0" d="M46.15,56.31h-.31s-.01,0-.01-.01v-.21s0-.01.01-.01h.31s.01,0,.01.01v.21s0,.01-.01.01ZM45.85,56.28h.28v-.18h-.28v.18Z"/>
        </g>
        <g>
          <path class="st0" d="M46.53,56.53c.07-.02.13-.06.15-.11.02-.05.03-.09.03-.12h-.22v-.21h.31v.03s0,.07,0,.09c0,.02,0,.05,0,.08s0,.06,0,.08c0,.02-.01.04-.02.07-.01.06-.03.08-.07.11-.03.03-.08.04-.13.05l-.04-.06Z"/>
          <path class="st0" d="M46.58,56.61s0,0-.01,0l-.05-.06s0,0,0-.01c0,0,0,0,.01,0,.07-.02.12-.06.14-.1.02-.04.03-.07.03-.1h-.2s-.01,0-.01-.01v-.21s0-.01.01-.01h.31s.01,0,.01.01v.03s0,.07,0,.1c0,.01,0,.03,0,.04,0,.01,0,.03,0,.04,0,.04,0,.07,0,.08,0,0,0,.02,0,.03,0,.01,0,.03-.01.04-.01.06-.03.08-.07.11-.03.03-.07.05-.14.05h0ZM46.56,56.54l.03.04c.06,0,.09-.02.12-.04.03-.03.05-.05.06-.1,0-.02,0-.03.01-.04,0,0,0-.02,0-.03,0-.02,0-.04,0-.08,0-.02,0-.03,0-.04,0-.02,0-.03,0-.04,0-.02,0-.05,0-.09h0s-.28-.01-.28-.01v.18h.2s.01,0,.01.01c0,.04-.01.08-.03.13-.02.05-.07.09-.14.11Z"/>
        </g>
        <g>
          <path class="st0" d="M47.88,56.29v-2.01h.26v1.87h.8v.14h-1.06Z"/>
          <path class="st0" d="M48.94,56.31h-1.06s-.01,0-.01-.01v-2.01s0-.01.01-.01h.26s.01,0,.01.01v1.85h.79s.01,0,.01.01v.14s0,.01-.01.01ZM47.9,56.28h1.03v-.12h-.79s-.01,0-.01-.01v-1.85h-.23v1.98Z"/>
        </g>
        <g>
          <path class="st0" d="M49.33,56.29v-1.87h-.56v-.14h1.38v.14h-.56v1.87h-.25Z"/>
          <path class="st0" d="M49.59,56.31h-.25s-.01,0-.01-.01v-1.86h-.55s-.01,0-.01-.01v-.14s0-.01.01-.01h1.38s.01,0,.01.01v.14s0,.01-.01.01h-.55v1.86s0,.01-.01.01ZM49.35,56.28h.23v-1.86s0-.01.01-.01h.55v-.11h-1.35v.11h.55s.01,0,.01.01v1.86Z"/>
        </g>
        <g>
          <path class="st0" d="M50.34,56.29v-2.01h.65c.56,0,.74.27.74.6v.82c0,.4-.25.59-.74.59h-.65ZM50.6,56.15h.39c.32,0,.48-.14.48-.41v-.9c0-.28-.16-.42-.48-.42h-.39v1.73Z"/>
          <path class="st0" d="M50.99,56.31h-.65s-.01,0-.01-.01v-2.01s0-.01.01-.01h.65c.5,0,.75.21.75.61v.82c0,.4-.25.61-.75.61ZM50.35,56.28h.63c.49,0,.72-.19.72-.58v-.82c0-.39-.24-.59-.72-.59h-.63v1.98ZM50.99,56.16h-.39s-.01,0-.01-.01v-1.73s0-.01.01-.01h.39c.33,0,.49.15.49.43v.9c0,.28-.17.42-.49.42ZM50.61,56.13h.38c.31,0,.46-.13.46-.4v-.9c0-.27-.15-.4-.46-.4h-.38v1.7Z"/>
        </g>
      </g>
    </g>
    <g>
      <path class="st0" d="M35.21,14.43c-7.87,0-14.25,6.38-14.25,14.25s6.38,14.25,14.25,14.25,14.25-6.38,14.25-14.25-6.38-14.25-14.25-14.25ZM34.58,41.12c-7.12,0-12.89-5.77-12.89-12.89s5.77-12.89,12.89-12.89,12.89,5.77,12.89,12.89-5.77,12.89-12.89,12.89Z"/>
      <path class="st0" d="M30.89,28.71c.13-.17.41-.02.34.18-.46,1.35-.79,3.24-.42,3.6-.55-.55,1.86-4.19,1.86-5.52,0-.95-.3-1.56-.63-1.98-.15-.2-1.86.48-1.94.57,0-1.58-1.65-2.1-2.26-2.1-.83,0-1.97.45-2.3.64h0c.57-.73-.17-2.17-.54-2.8-.08-.13.02-.3.18-.29,1.12.08,4.18.36,4.18.36v-.6s2.41.24,4.17.24c.87,0,2.55-.37,4.06-.75.33-.08.49.38.18.52l-1.12.51c-.29.13-.17.57.15.53h0c.33-.04.44.43.12.54l-1.24.43c-.13.05-.17.2-.08.31.49.57,1.76,2.23,1.76,4.11,0,2.81-.84,4.62-.84,4.62,1.45-1.45,2.18-5.97.3-8.01-.09-.08,0-.1.13-.09,9.21.13,7.4,8.74,13.99,16.4.19.22-.05.56-.32.43-3.17-1.41-10.65-4.06-13.8-4.06-1.59,0-2.07.67-.36,2.51.12.12.03.33-.15.33-7.58-.17-8.24-5.36-7.84-7.5s2.41-3.13,2.41-3.13Z"/>
    </g>
  </g>
</svg>